<!DOCTYPE svg PUBLIC "-//W3C//DTD SVG 1.1//EN" "http://www.w3.org/Graphics/SVG/1.1/DTD/svg11.dtd">
<!-- Uploaded to: SVG Repo, www.svgrepo.com, Transformed by: SVG Repo Mixer Tools -->
<svg fill="#000000" width="800px" height="800px" viewBox="0 0 24 24" id="analysis" data-name="Flat Color" xmlns="http://www.w3.org/2000/svg" class="icon flat-color">
<g id="SVGRepo_bgCarrier" stroke-width="0"/>
<g id="SVGRepo_tracerCarrier" stroke-linecap="round" stroke-linejoin="round"/>
<g id="SVGRepo_iconCarrier">
<path id="primary" d="M5,2H16a2,2,0,0,1,2,2V20a2,2,0,0,1-2,2H4a2,2,0,0,1-2-2V4C2,3.25,2.39,2,5,2Z" style="fill: #f7268b;"/>
<path id="secondary" d="M9,14H6a1,1,0,0,1,0-2H9a1,1,0,0,1,0,2Zm3-4a4,4,0,0,0,6.06,3.43l2.23,2.23a1,1,0,0,0,1.42,0,1,1,0,0,0,0-1.42L19.46,12A4,4,0,1,0,12,10ZM5,17a1,1,0,0,0,1,1h7a1,1,0,0,0,0-2H6A1,1,0,0,0,5,17Z" style="fill: #191a1a;"/>
</g>
</svg>