<!DOCTYPE svg PUBLIC "-//W3C//DTD SVG 1.1//EN" "http://www.w3.org/Graphics/SVG/1.1/DTD/svg11.dtd">
<!-- Uploaded to: SVG Repo, www.svgrepo.com, Transformed by: SVG Repo Mixer Tools -->
<svg width="800px" height="800px" viewBox="0 0 64 64" id="Layer_1" version="1.1" xml:space="preserve" xmlns="http://www.w3.org/2000/svg" xmlns:xlink="http://www.w3.org/1999/xlink" fill="#fb2d90">
<g id="SVGRepo_bgCarrier" stroke-width="0"/>
<g id="SVGRepo_tracerCarrier" stroke-linecap="round" stroke-linejoin="round"/>
<g id="SVGRepo_iconCarrier"> <style type="text/css"> .st0{fill:#fb2d90;} .st1{fill:#358DCC;} .st2{fill-rule:evenodd;clip-rule:evenodd;fill:#3FB754;} .st3{fill-rule:evenodd;clip-rule:evenodd;fill:#000000;} .st4{fill:#000000;} .st5{fill:#924F34;} .st6{fill:#000000;} .st7{fill:#0F8C7E;} .st8{fill-rule:evenodd;clip-rule:evenodd;fill:#000000;} .st9{fill-rule:evenodd;clip-rule:evenodd;fill:#000000;stroke:#000000;stroke-width:0.4799;stroke-miterlimit:2.6131;} .st10{fill:#823B1F;} .st11{fill:#FFC810;} .st12{fill-rule:evenodd;clip-rule:evenodd;fill:#924F34;} .st13{fill:#E04538;} .st14{fill-rule:evenodd;clip-rule:evenodd;} .st15{fill-rule:evenodd;clip-rule:evenodd;fill:#FFC810;} .st16{fill-rule:evenodd;clip-rule:evenodd;fill:#E4E7E9;} .st17{fill:#3FB754;} .st18{fill-rule:evenodd;clip-rule:evenodd;fill:#000000;} .st19{fill:#C92B1C;} .st20{fill:#000000;} .st21{fill:#FFD95E;} .st22{fill:#000000;} .st23{fill-rule:evenodd;clip-rule:evenodd;fill:#0F8C7E;} .st24{fill:#000000;} .st25{fill:#000000;} .st26{fill-rule:evenodd;clip-rule:evenodd;fill:#358DCC;} .st27{fill-rule:evenodd;clip-rule:evenodd;fill:#823B1F;} </style> <g> <path class="st0" d="M13.9,12.5h2h2.9c0.2-3.4,3-6.1,6.5-6.1h13.5c3.4,0,6.3,2.7,6.5,6.1h9.4c4.6,0,8.4,3.8,8.4,8.4 c0,9.4,0,18.9,0,28.3c0,4.6-3.8,8.4-8.4,8.4H9.4c-4.6,0-8.4-3.8-8.4-8.4c0-9.4,0-18.9,0-28.3c0-4.6,3.8-8.4,8.4-8.4H13.9L13.9,12.5 z"/> <path d="M17.9,11.5c0.6-3.5,3.7-6.1,7.3-6.1h13.5c3.6,0,6.7,2.6,7.3,6.1h8.6c5.2,0,9.4,4.2,9.4,9.4v28.3c0,5.2-4.2,9.4-9.4,9.4H9.4 c-5.2,0-9.4-4.2-9.4-9.4V20.9c0-2.6,1.1-4.9,2.8-6.6c1.7-1.7,4.1-2.8,6.6-2.8C12.3,11.5,15.1,11.5,17.9,11.5L17.9,11.5z M9.4,13.4 c-2.1,0-3.9,0.8-5.3,2.2c-1.4,1.3-2.2,3.2-2.2,5.3v28.3c0,4.1,3.4,7.5,7.4,7.5h45.2c4.1,0,7.4-3.4,7.4-7.5V20.9 c0-4.1-3.4-7.4-7.4-7.4H44.3c-0.2-3.3-1.9-6.1-5.6-6.1H25.3c-3.6,0-5.4,2.8-5.6,6.1C16.3,13.4,12.9,13.4,9.4,13.4L9.4,13.4z"/> <polygon class="st6" points="63,23.2 63,27.7 1,27.7 1,23.2 63,23.2 "/> <path d="M64,23.2v4.5v1h-1H1H0v-1v-4.5v-1h1H63h1V23.2L64,23.2z M62.1,26.7v-2.6H1.9v2.6H62.1L62.1,26.7z"/> <path class="st20" d="M9.4,12.5v-2.2c0-1.2,1-2.2,2.2-2.2c1.2,0,2.3,1,2.3,2.2v2.2H9.4L9.4,12.5z"/> <path d="M8.4,10.3C8.4,8.5,9.9,7,11.7,7c1.8,0,3.2,1.4,3.2,3.2v3.2c-2.1,0-4.3,0-6.4,0V10.3L8.4,10.3z M10.4,10.3v1.2h2.6v-1.2 c0-0.7-0.6-1.3-1.3-1.3C11,9,10.4,9.6,10.4,10.3L10.4,10.3z"/> <path class="st8" d="M37.8,40.6c0,3.2-2.6,5.8-5.8,5.8s-5.8-2.6-5.8-5.8c0-3.2,2.6-5.8,5.8-5.8S37.8,37.3,37.8,40.6L37.8,40.6z M32,30.2c-5.7,0-10.3,4.6-10.3,10.3c0,5.7,4.6,10.3,10.3,10.3c5.7,0,10.3-4.6,10.3-10.3C42.3,34.9,37.7,30.2,32,30.2L32,30.2z"/> <path d="M38.8,40.6c0,3.8-3.1,6.8-6.8,6.8c-3.8,0-6.8-3-6.8-6.8c0-3.8,3.1-6.8,6.8-6.8C35.8,33.8,38.8,36.8,38.8,40.6L38.8,40.6z M36.9,40.6c0-2.7-2.2-4.9-4.9-4.9c-2.7,0-4.9,2.2-4.9,4.9c0,2.7,2.2,4.9,4.9,4.9C34.7,45.4,36.9,43.3,36.9,40.6L36.9,40.6z M32,31.2c-5.2,0-9.4,4.2-9.4,9.4c0,5.2,4.2,9.4,9.4,9.4c5.2,0,9.4-4.2,9.4-9.4C41.4,35.4,37.2,31.2,32,31.2L32,31.2z M32,29.3 c6.2,0,11.3,5.1,11.3,11.3c0,6.2-5.1,11.3-11.3,11.3s-11.3-5.1-11.3-11.3C20.7,34.3,25.8,29.3,32,29.3L32,29.3z"/> </g> </g>
</svg>