<?xml version="1.0" encoding="UTF-8"?>
<svg xmlns="http://www.w3.org/2000/svg" viewBox="0 0 1953.06 874.8">
  <defs>
    <style>
      .cls-1 {
        fill: #401a0a;
      }

      .cls-2, .cls-3 {
        fill: #56bca4;
      }

      .cls-4 {
        isolation: isolate;
      }

      .cls-3, .cls-5 {
        mix-blend-mode: multiply;
        opacity: .3;
      }

      .cls-6, .cls-5 {
        fill: #429580;
      }
    </style>
  </defs>
  <g class="cls-4">
    <g id="Layer_2" data-name="Layer 2">
      <g id="graphic_elements" data-name="graphic elements">
        <g>
          <g>
            <path class="cls-6" d="M1871.41,1.18c.14-.18.33-.32.5-.5.71,10.42,1.37,21.32-1.03,31.34l-.23-.06c-5.54-4.95-8.57-12.61-7.86-20.01-.78.13-1.56.23-2.36.31,3.31-3.59,6.74-7.07,10.27-10.43.18.34.86-.23.71-.66Z"/>
            <path class="cls-6" d="M1870.7,1.84c-3.54,3.36-6.96,6.84-10.27,10.43-5.84.56-11.85-.4-17.18-2.8.06-.03.09-.05.14-.08,8.09-4.36,17.66-4.96,26.22-8.35.57-.23,1.31-.45,1.72,0,.06.04.07.09.08.14-.25.2-.48.43-.71.66Z"/>
            <path class="cls-6" d="M1860.42,12.27c.79-.08,1.57-.18,2.36-.31-.71,7.41,2.32,15.07,7.86,20.01l.23.06c-.82,3.51-2.05,6.9-3.74,10.15-1.48,2.8-3.28,5.38-5.33,7.76-7.67-6.49-11.79-17.03-10.46-27-.16.05-.32.11-.47.14,3.07-3.7,6.27-7.32,9.56-10.81Z"/>
            <path class="cls-6" d="M1843.25,9.47c5.33,2.4,11.34,3.36,17.18,2.8-3.29,3.5-6.48,7.12-9.56,10.81-6.69,2.22-14.09,2.12-20.72-.24l-.59-.4c3.65-5.29,8.11-9.92,13.69-12.97Z"/>
            <path class="cls-6" d="M1850.87,23.08c.15-.03.31-.09.47-.14-1.32,9.98,2.79,20.52,10.46,27-4.13,4.84-9.26,8.89-14.7,12.39-6-5.48-9.6-13.54-9.61-21.69,4.19-6.04,8.66-11.9,13.37-17.56Z"/>
            <path class="cls-6" d="M1829.56,22.44l.59.4c6.62,2.36,14.03,2.46,20.72.24-4.71,5.65-9.19,11.52-13.37,17.56-.01-.05,0-.1,0-.15-4.64,4.3-11.41,6.18-17.6,4.91l-1.18-.39c1.61-4.91,3.6-9.7,5.95-14.32,1.44-2.83,3.06-5.62,4.9-8.24Z"/>
            <path class="cls-6" d="M1837.49,40.49c.01.05,0,.1,0,.15-3.57,5.11-6.96,10.35-10.17,15.73-3.01,3.11-7.32,4.93-11.69,4.97l-.79-.14c.82-5.49,2.1-10.9,3.86-16.19l1.18.39c6.19,1.27,12.96-.61,17.6-4.91Z"/>
            <path class="cls-6" d="M1837.5,40.64c.01,8.16,3.61,16.21,9.61,21.69-1.38.89-2.77,1.75-4.18,2.58-4.96,2.9-10.12,5.51-15.18,8.24-.04-5.7-.09-11.37-.14-17.05-.1.09-.17.2-.29.26,3.21-5.38,6.6-10.62,10.17-15.73Z"/>
            <path class="cls-6" d="M1827.61,56.11c.05,5.67.1,11.35.14,17.05-4.62,2.51-9.16,5.09-13.43,8.13,3.87-8.54,8.2-16.86,13-24.91.11-.07.19-.17.29-.26Z"/>
            <path class="cls-6" d="M1815.63,61.33c4.37-.04,8.68-1.86,11.69-4.97-4.8,8.05-9.14,16.37-13,24.91-.18.12-.36.24-.53.36-.37-6.82,0-13.69,1.06-20.45l.79.14Z"/>
            <path class="cls-5" d="M1851.98,6.03c-2.97.87-5.87,1.89-8.59,3.36-.06.03-.09.05-.14.08,1.17.53,2.38.97,3.6,1.36,1.68-1.67,3.39-3.26,5.14-4.8Z"/>
            <path class="cls-5" d="M1846.85,10.83c-1.23-.39-2.43-.83-3.6-1.36-5.58,3.05-10.05,7.68-13.69,12.97l.59.4c1.65.59,3.35,1.03,5.07,1.34,3.57-4.74,7.49-9.23,11.63-13.35Z"/>
            <path class="cls-5" d="M1835.22,24.18c-1.72-.31-3.42-.75-5.07-1.34l-.59-.4c-1.84,2.63-3.46,5.41-4.9,8.24-2.35,4.62-4.34,9.41-5.95,14.32l1.18.39c.82.17,1.66.27,2.49.33,3.3-7.45,7.71-14.75,12.84-21.55Z"/>
            <path class="cls-5" d="M1817.3,61.23c.04-.32.09-.65.16-.99,1.1-4.83,2.78-9.7,4.92-14.52-.84-.06-1.67-.16-2.49-.33l-1.18-.39c-1.76,5.29-3.04,10.7-3.86,16.19l.79.14c.56,0,1.11-.04,1.67-.1Z"/>
            <path class="cls-5" d="M1817.53,75.98c.44-1.41.91-2.81,1.37-4.21-1.58,3.14-3.12,6.3-4.57,9.51.93-.66,1.87-1.29,2.83-1.91-.09-1.04,0-2.17.38-3.39Z"/>
            <path class="cls-5" d="M1818.89,71.77c.34-1.05.67-2.1,1.02-3.14-1.91-1.73-3.01-4.32-2.61-7.4-.55.06-1.11.1-1.67.1l-.79-.14c-1.06,6.76-1.43,13.62-1.06,20.45l.53-.36c1.45-3.21,2.99-6.37,4.57-9.51Z"/>
            <path class="cls-1" d="M1813.93,83.23c1.4-3.01,2.88-5.97,4.36-8.93s3-5.88,4.59-8.77,3.22-5.76,4.9-8.6,3.43-5.64,5.22-8.41,3.64-5.51,5.53-8.21,3.84-5.37,5.84-7.99c.26-.34.52-.68.78-1.02.12-.16.24-.31.36-.47-.09.12-.03.04,0,.01.03-.04.07-.08.1-.13.08-.1.15-.2.23-.3.5-.65,1.01-1.29,1.52-1.94,1.03-1.3,2.07-2.59,3.13-3.87,2.1-2.55,4.24-5.05,6.44-7.52s4.44-4.89,6.72-7.26,4.62-4.71,7-7c.58-.56,1.16-1.11,1.74-1.66l-1.18-.49c.25,3.61.49,7.23.6,10.85s.09,7.21-.17,10.8c-.07.9-.15,1.79-.25,2.69-.05.45-.1.89-.16,1.34-.02.18.02-.15,0,.03,0,.05-.01.11-.02.16-.01.11-.03.21-.04.32-.03.23-.07.46-.1.69-.27,1.74-.62,3.47-1.06,5.18s-.97,3.38-1.6,5.02c-.08.2-.16.4-.24.6-.04.1-.08.2-.12.3-.02.05-.04.1-.06.15-.01.03-.03.07-.04.1.03-.08.04-.09,0-.02-.18.41-.36.82-.54,1.22-.36.78-.76,1.56-1.17,2.32-.8,1.45-1.69,2.85-2.65,4.2-.24.34-.49.67-.75,1-.03.04-.06.08-.09.12-.1.14.09-.12-.01.02-.06.08-.12.16-.18.24-.13.17-.27.34-.41.51-.53.65-1.07,1.28-1.63,1.9-2.23,2.47-4.7,4.72-7.32,6.78-.16.13-.32.25-.48.38-.02.02-.16.13-.02.02-.04.03-.08.06-.12.09-.09.07-.19.14-.28.22-.34.26-.68.51-1.02.76-.67.49-1.35.97-2.03,1.45-1.4.96-2.82,1.89-4.26,2.78-3.11,1.92-6.32,3.69-9.54,5.42s-6.68,3.53-9.99,5.36-6.59,3.74-9.74,5.85c-.76.51-1.51,1.03-2.26,1.56l1.04.6c-.1-1.92-.14-3.85-.13-5.77s.08-3.85.2-5.77.3-3.84.53-5.75c.03-.23.06-.47.09-.7.01-.11.03-.22.04-.34,0-.04,0-.07.01-.11,0-.01.01-.11,0-.02s0,0,0-.02c0-.04.01-.07.02-.11.06-.47.13-.95.2-1.42.14-.95.3-1.89.47-2.83.34-1.89.74-3.78,1.19-5.65s.95-3.73,1.5-5.57,1.16-3.67,1.82-5.48c.33-.9.67-1.79,1.02-2.68.18-.44.36-.89.54-1.33.05-.11.09-.23.14-.34.02-.05.04-.1.07-.16.01-.03.02-.05.03-.08.04-.09-.04.1,0,0,.1-.22.19-.45.29-.67.76-1.77,1.58-3.51,2.44-5.23.78-1.55,1.6-3.07,2.47-4.56s1.79-2.94,2.77-4.35c.49-.71,1-1.41,1.52-2.09.03-.04.06-.08.09-.12.02-.02.03-.04.05-.06.05-.06-.03.04-.03.04.08-.06.14-.18.2-.26.13-.17.27-.34.4-.51.27-.33.54-.66.81-.98,1.1-1.29,2.27-2.53,3.51-3.69.62-.57,1.25-1.13,1.9-1.66.17-.14.33-.27.5-.4.04-.03.08-.06.12-.09.02-.01.04-.03.06-.05,0,0-.1.08-.04.03.09-.07.17-.13.26-.19.34-.26.69-.51,1.04-.76,1.43-1,2.93-1.88,4.5-2.63.41-.2.83-.39,1.26-.58.1-.04.2-.09.3-.13.12-.05-.09.04.03-.01.06-.02.12-.05.17-.07.22-.09.43-.18.65-.26.86-.34,1.72-.65,2.6-.94,1.77-.58,3.56-1.08,5.36-1.54s3.63-.9,5.44-1.36,3.62-.94,5.4-1.5c.88-.28,1.76-.58,2.63-.9.41-.15.82-.33,1.23-.47.1-.03.2-.06.29-.08.04,0,.1,0,.14-.03,0,0-.14.01-.07,0,.03,0,.06,0,.09,0,.04,0,.09,0,.13,0,.02,0,.04,0,.06,0,0,0-.14-.03-.07,0,.02,0,.13.04.14.04-.01,0-.12-.06-.07-.02.02.02.05.03.07.04.06.03-.05-.03-.05-.04,0,0,.04.03.04.04-.02-.03-.05-.07-.07-.11-.06-.15,0,.1-.02-.07-.02-.14-.01-.02,0,0,0,.04.03-.18,0-.07-.03.12.07-.13.02-.04-.01.02-.03.05-.04.07-.04.08.1-.11.03-.04-.02.02-.04.04-.06.06-.07.08,0-.02.05-.03-.02,0-.05.03-.07.04-.07.05.15-.06.07-.03,0,0-.04.01-.04.01,0,0,.29-.04.04,0-.26.04.18,0,.2.01-.02,0-.07-.03.04.02.1.04.14.08.18.13.07.09.04.05.02.03,0,0,.06.17.03.08-.1-.32-.45-.56-.79-.45-.32.1-.56.45-.45.79.07.23.21.45.43.56.06.03.13.06.19.08.06.01.13.02.19.03-.03,0-.26-.03-.05,0,.12.02.25,0,.37-.03.42-.12.73-.47.88-.87.18-.47-.01-.95-.4-1.25-.44-.34-.99-.36-1.52-.27-.43.08-.84.27-1.25.42-.44.17-.89.33-1.33.48-.9.31-1.81.6-2.73.87-1.83.54-3.67,1.01-5.52,1.47s-3.7.9-5.54,1.4-3.66,1.03-5.45,1.68-3.59,1.42-5.29,2.34c-1.52.82-2.97,1.77-4.34,2.82s-2.75,2.25-4,3.51-2.37,2.54-3.45,3.9-2.16,2.86-3.14,4.36-1.87,2.99-2.72,4.53c-.89,1.62-1.73,3.27-2.53,4.93-.86,1.81-1.67,3.64-2.42,5.5s-1.43,3.67-2.06,5.54-1.21,3.73-1.73,5.62-.99,3.8-1.4,5.72-.77,3.87-1.07,5.81-.55,3.97-.74,5.97-.31,3.91-.38,5.87-.08,3.94-.04,5.91c.02.95.06,1.89.11,2.84.01.25.12.47.34.6.2.12.5.14.7,0,3.1-2.22,6.35-4.21,9.65-6.1s6.66-3.65,10.01-5.43,6.66-3.56,9.91-5.48c2.9-1.71,5.74-3.55,8.45-5.55s5.37-4.23,7.77-6.67,4.5-5.03,6.29-7.87c1.88-2.99,3.34-6.23,4.4-9.59s1.75-6.97,2.15-10.54.51-7.2.48-10.8-.24-7.29-.48-10.93c-.06-.87-.12-1.73-.18-2.6-.02-.28-.16-.52-.42-.63s-.55-.05-.75.14c-2.41,2.28-4.78,4.6-7.1,6.97s-4.57,4.76-6.79,7.2-4.4,4.94-6.52,7.48-4.2,5.11-6.23,7.73-4.05,5.32-5.99,8.03-3.81,5.43-5.64,8.2-3.58,5.55-5.28,8.37-3.39,5.67-4.96,8.57-3.13,5.85-4.62,8.82c-.37.73-.73,1.47-1.09,2.21-.05.1-.09.19-.14.29-.02.03-.03.06-.05.1l-.06.15c.03-.06.03-.06,0,0-.1.19-.18.39-.28.58-.18.37-.35.74-.52,1.12-.18.39-.38.78-.55,1.18-.09.22.04-.09-.03.08-.02.05-.04.1-.07.15-.04.1-.09.2-.13.29-.09.2-.18.39-.26.59-.17.38-.33.75-.5,1.13-.08.18-.16.36-.24.54-.03.07-.07.15-.1.22.03-.07-.01.03-.02.05-.05.11-.09.21-.14.32-.32.74-.64,1.47-.96,2.21-.1.23-.07.5.17.64.2.12.53.06.64-.17h0Z"/>
            <path class="cls-1" d="M1828.13,74.17c0-1.18.02-2.36,0-3.54s-.02-2.36-.03-3.54c-.02-2.34-.04-4.69-.05-7.03-.01-1.32-.02-2.64-.03-3.97,0-.35-.46-.56-.71-.29-.3.32-.61.62-.93.92-.16.15-.33.29-.49.43-.07.06-.15.12-.23.18-.04.03-.09.07-.13.1-.02.02-.05.04-.07.06-.06.05.02-.02-.02.01-.69.52-1.42,1-2.18,1.41-.38.21-.76.4-1.16.57-.09.04-.19.08-.28.12-.07.03-.01,0,0,0-.03.01-.06.02-.08.03-.06.02-.11.05-.17.07-.2.08-.4.15-.6.23-.82.29-1.65.52-2.51.68-.24.05-.48.09-.72.12-.03,0-.06,0-.09.01-.08.01.04,0-.01,0-.06,0-.12.02-.18.02-.12.01-.24.03-.36.04-.49.05-.98.08-1.47.08-.22,0-.43.19-.42.42s.19.43.42.42c1.78,0,3.57-.31,5.25-.88s3.29-1.4,4.72-2.46c.82-.61,1.58-1.28,2.28-2.02l-.71-.29c.02,2.36.05,4.72.07,7.08s.05,4.69.07,7.03c.01,1.32.04,2.64.08,3.97,0,.19.16.36.36.36s.35-.16.36-.36h0Z"/>
            <path class="cls-1" d="M1819.79,45.79c1.27.28,2.46.42,3.77.45s2.54-.08,3.79-.3c2.47-.42,4.87-1.3,7.03-2.56,1.23-.72,2.37-1.59,3.43-2.54l-.83-.34c-.05,3.28.5,6.58,1.56,9.68s2.6,6.02,4.58,8.62c1.12,1.47,2.36,2.85,3.75,4.08.22.19.58.23.79,0,.2-.21.23-.58,0-.79-1.19-1.08-2.29-2.24-3.29-3.49-.06-.08-.12-.16-.19-.24,0,0-.11-.14-.04-.04-.03-.04-.06-.08-.09-.12-.12-.16-.24-.32-.36-.48-.24-.32-.47-.65-.69-.98-.45-.67-.86-1.35-1.26-2.05s-.75-1.41-1.09-2.14c-.08-.18-.17-.36-.25-.55-.04-.08-.07-.17-.11-.25-.04-.09.05.12-.01-.03-.03-.06-.05-.12-.08-.19-.15-.37-.3-.74-.43-1.12-.55-1.5-.98-3.05-1.29-4.62-.09-.44-.16-.89-.23-1.33-.02-.12-.03-.23-.05-.35.02.11,0-.05,0-.06,0-.05-.01-.1-.02-.15-.03-.23-.05-.46-.08-.7-.09-.9-.14-1.8-.16-2.7,0-.43-.53-.64-.83-.34-.23.22-.46.42-.7.62-.11.1-.23.19-.34.28-.05.04-.1.08-.15.12-.03.03-.06.05-.1.08t0,0s-.04.03-.06.04c-.48.37-.98.71-1.5,1.03s-1.06.63-1.61.9c-.26.13-.53.26-.8.38-.07.03-.15.07-.23.1-.03.01-.17.07-.11.05-.15.06-.3.13-.46.19-2.28.89-4.63,1.36-7.03,1.4-1.37.03-2.73-.09-4.05-.34-.22-.04-.44.06-.5.28-.06.2.07.45.28.5h0Z"/>
            <path class="cls-1" d="M1862.83,50.48c-.38-.34-.74-.69-1.12-1.03s-.74-.69-1.08-1.07-.7-.73-1.04-1.11-.67-.76-.99-1.16-.58-.72-.88-1.13-.59-.82-.87-1.25c-.57-.84-1.09-1.71-1.58-2.61-.24-.44-.47-.89-.68-1.34-.11-.23-.22-.46-.32-.69-.05-.12-.1-.23-.15-.35-.03-.06-.05-.12-.08-.17,0-.02-.07-.18-.04-.1-.39-.94-.74-1.89-1.04-2.86s-.55-1.96-.76-2.95c-.1-.49-.19-.98-.27-1.48-.02-.13-.04-.25-.06-.38,0-.05-.02-.11-.02-.16.01.09,0,0,0,0,0-.04-.01-.08-.02-.12-.03-.25-.06-.5-.09-.76-.21-2.01-.21-4.04,0-6.05.03-.25.06-.51.09-.76.04-.32-.36-.58-.64-.49-1.33.46-2.69.83-4.07,1.1s-2.64.44-4.04.54-2.81.1-4.22.01-2.67-.26-4.05-.52c-1.55-.28-3.08-.68-4.58-1.14-.21-.06-.43.07-.49.28-.06.23.08.41.28.49.66.27,1.33.51,2.02.72s1.35.38,2.04.53c1.4.32,2.84.51,4.28.62,2.83.22,5.69.06,8.48-.45,1.57-.29,3.11-.69,4.62-1.21l-.64-.49c-.27,2.03-.31,4.08-.15,6.12s.54,4.12,1.12,6.11,1.35,3.93,2.29,5.78,2.08,3.58,3.38,5.2c.64.8,1.33,1.55,2.06,2.27.37.36.76.7,1.15,1.03s.78.68,1.21.99c.21.15.41.29.62.43.24.16.53-.21.31-.4h0Z"/>
            <path class="cls-1" d="M1842.36,9.38c2.37,1.35,5.04,2.18,7.7,2.74s5.44.82,8.18.74c1.56-.05,3.12-.2,4.65-.46l-.59-.45c-.28,2.94.01,5.93.81,8.77s2.09,5.53,3.83,7.91c.98,1.35,2.1,2.6,3.35,3.71.2.17.52.21.71,0,.18-.19.21-.52,0-.71-2.18-1.96-3.88-4.17-5.21-6.77-.16-.32-.32-.64-.47-.97-.07-.15-.14-.3-.2-.45-.02-.04-.04-.09-.06-.14,0,.01-.06-.14-.03-.08s-.04-.09-.03-.08c-.03-.06-.05-.12-.07-.18-.27-.67-.51-1.35-.72-2.03s-.39-1.38-.54-2.09c-.08-.35-.14-.7-.2-1.06-.03-.16-.05-.32-.08-.48,0-.05-.01-.1-.02-.15,0,0-.02-.16,0-.07-.01-.1-.03-.19-.04-.29-.19-1.61-.22-3.23-.07-4.84.03-.33-.32-.49-.59-.45-2.59.45-5.3.58-7.96.4s-5.29-.69-7.84-1.49c-1.44-.46-2.86-1-4.27-1.56-.31-.12-.5.37-.22.53h0Z"/>
          </g>
          <g>
            <path class="cls-2" d="M88.67,178.27c-1.44,2.02-2.94,3.98-4.53,5.87-.53.64-1.08,1.28-1.64,1.89l-1.38-1.02c-9.81-6.64-21.97-9.73-33.77-8.59,2.76-2.93,5.58-5.78,8.48-8.58,11.64-.9,23.59,2.86,32.61,10.26l.23.17Z"/>
            <path class="cls-2" d="M88.67,178.27l-.23-.17c-9.02-7.4-20.97-11.16-32.61-10.26,7-6.71,14.41-13.01,22.18-18.84,7.72.97,15.23,3.64,21.84,7.76l1.42.79c-3.94,7.1-7.92,14.18-12.6,20.72Z"/>
            <path class="cls-2" d="M81.12,185.01l1.38,1.02c-5.5,6.18-11.95,11.47-19.01,15.78l-1.19-1.88c-9.37-5.01-20.38-6.85-30.87-5.19,3.5-4.18,6.97-8.39,10.55-12.45,1.76-1.99,3.55-3.96,5.37-5.88,11.8-1.14,23.96,1.95,33.77,8.59Z"/>
            <path class="cls-2" d="M101.27,157.55l-1.42-.79c-6.61-4.12-14.12-6.79-21.84-7.76,5.7-4.31,11.61-8.35,17.68-12.12,4.86.77,9.39,3.26,12.66,6.92l.54.33c-2.62,4.39-5.12,8.92-7.62,13.43Z"/>
            <path class="cls-2" d="M107.05,130.22c5.89-3.25,11.92-6.25,18.07-8.99v-.4c.75,0,1.52-.01,2.28-.03-7.59,6.57-13.33,14.69-18.52,23.32l-.54-.33c-3.26-3.66-7.8-6.14-12.66-6.92,3.72-2.34,7.52-4.55,11.36-6.66Z"/>
            <path class="cls-2" d="M125.12,120.84v.4c-6.15,2.74-12.17,5.74-18.06,8.99-.78.06-1.57.2-2.34.38,1.77-2.77,2.97-5.9,3.53-9.14,5.65-.34,11.31-.5,16.88-.62Z"/>
            <path class="cls-2" d="M62.3,199.94l1.19,1.88c-14.85,9.04-32.44,13.64-49.81,12.55,0-.01,0-.03.01-.05,6.34-6,12.07-12.76,17.74-19.57,10.48-1.66,21.49.18,30.87,5.19Z"/>
            <path class="cls-2" d="M104.71,130.6c.77-.18,1.57-.32,2.34-.38-3.85,2.11-7.65,4.33-11.36,6.66-.22-.05-.45-.09-.7-.12,2.9-4.12,3.94-9.51,2.77-14.4,3.48-.4,6.97-.67,10.48-.9-.55,3.24-1.75,6.38-3.53,9.14Z"/>
            <path class="cls-2" d="M94.99,136.76c.24.03.47.07.7.12-6.07,3.77-11.98,7.82-17.68,12.12,3.68-7.29,4.82-15.84,3.16-23.85,5.4-1.29,10.96-2.18,16.59-2.8,1.18,4.9.14,10.29-2.77,14.4Z"/>
            <path class="cls-2" d="M81.17,125.16c1.66,8.01.52,16.56-3.16,23.85-7.77,5.83-15.18,12.13-22.18,18.84-.1,0-.17,0-.26.02,2.91-10.23,2.52-21.37-1.11-31.36,7.96-5.51,17.07-9.05,26.71-11.34Z"/>
            <path class="cls-2" d="M55.58,167.86c.08-.01.16-.01.26-.02-2.9,2.79-5.72,5.64-8.48,8.58-.17,0-.34.03-.5.04,2.73-11.3,3.36-23.12,1.82-34.65l-.38-.42c1.97-1.8,4.02-3.42,6.18-4.89,3.63,10,4.02,21.13,1.11,31.36Z"/>
            <path class="cls-2" d="M46.85,176.46c.16-.01.33-.04.5-.04-1.82,1.93-3.62,3.89-5.37,5.88-3.58,4.07-7.05,8.27-10.55,12.45-.27.04-.55.08-.83.13,3.01-8.91,2.95-18.8-.15-27.66,4.17-9.21,9.35-17.78,16.62-24.72.4-.38.81-.77,1.22-1.12l.38.42c1.54,11.53.91,23.35-1.82,34.65Z"/>
            <path class="cls-2" d="M30.6,194.89c.28-.05.56-.09.83-.13-5.67,6.81-11.39,13.57-17.74,19.57,2.62-7.83,5.27-15.66,7.9-23.5,2.64-7.91,5.41-15.97,8.85-23.59,3.11,8.86,3.17,18.75.15,27.66Z"/>
            <path class="cls-3" d="M88.67,178.27l-.23-.17c-4.01-3.29-8.6-5.85-13.48-7.62-.55.66-1.09,1.33-1.65,1.97-1.85,2.14-3.77,4.15-5.75,6.07,4.81,1.49,9.4,3.66,13.57,6.48l1.38,1.02c.57-.61,1.12-1.25,1.64-1.89,1.59-1.89,3.08-3.85,4.53-5.87Z"/>
            <path class="cls-3" d="M101.27,157.55l-1.42-.79c-3.54-2.21-7.35-3.98-11.31-5.32-4.09,6.71-8.63,13.1-13.58,19.05,4.88,1.76,9.47,4.33,13.48,7.62l.23.17c4.68-6.54,8.67-13.62,12.6-20.72Z"/>
            <path class="cls-3" d="M81.12,185.01c-4.17-2.82-8.76-4.99-13.57-6.48-6.5,6.31-13.75,11.54-21.84,16.03-.04.02-.08.04-.13.07,5.82.77,11.52,2.54,16.71,5.31l1.19,1.88c7.06-4.31,13.51-9.6,19.01-15.78l-1.38-1.02Z"/>
            <path class="cls-3" d="M108.89,144.13l-.54-.33c-3.09-3.46-7.33-5.86-11.9-6.76-2.42,4.92-5.06,9.74-7.91,14.41,3.96,1.34,7.77,3.11,11.31,5.32l1.42.79c2.5-4.51,5-9.04,7.62-13.43Z"/>
            <path class="cls-3" d="M127.4,120.81c-.76.02-1.53.02-2.29.03v.4c-6.15,2.74-12.17,5.74-18.06,8.99-3.45,1.89-6.84,3.88-10.19,5.95-.14.29-.27.58-.42.87,4.57.9,8.81,3.3,11.9,6.76l.54.33c5.18-8.63,10.92-16.74,18.52-23.32Z"/>
            <path class="cls-3" d="M125.12,120.84v.4c-6.15,2.74-12.17,5.74-18.06,8.99-.78.06-1.57.2-2.34.38,1.77-2.77,2.97-5.9,3.53-9.14,5.65-.34,11.31-.5,16.88-.62Z"/>
            <path class="cls-3" d="M62.3,199.94c-5.19-2.77-10.88-4.53-16.71-5.31-8.64,4.78-17.66,8.75-26.08,13.82-1.89,2.02-3.82,3.99-5.82,5.87,0,.01,0,.03-.01.05,17.37,1.09,34.96-3.51,49.81-12.55l-1.19-1.88Z"/>
            <path class="cls-3" d="M96.86,136.17c3.34-2.07,6.74-4.06,10.19-5.95-.78.06-1.57.2-2.34.38,1.77-2.77,2.97-5.9,3.53-9.14-1.71.11-3.43.24-5.14.38-1.88,4.84-3.96,9.63-6.24,14.33Z"/>
            <path class="cls-3" d="M14.6,211.61c-.3.9-.61,1.81-.91,2.71,2-1.89,3.93-3.86,5.82-5.87-1.66,1-3.29,2.06-4.9,3.16Z"/>
            <path class="cls-1" d="M125.06,121.01c-2.48,1.03-4.92,2.14-7.34,3.3s-4.81,2.35-7.19,3.6-4.71,2.52-7.02,3.84-4.62,2.68-6.89,4.08-4.54,2.84-6.78,4.31-4.43,2.98-6.61,4.52-4.33,3.12-6.46,4.74-4.27,3.29-6.36,4.99-4.13,3.41-6.15,5.17-4,3.53-5.96,5.35-3.88,3.67-5.77,5.55-3.77,3.81-5.6,5.76-3.64,3.93-5.41,5.94-3.46,4-5.17,6.02-3.42,4.1-5.13,6.15-3.42,4.1-5.16,6.12-3.48,4.01-5.27,5.97-3.6,3.86-5.48,5.72-3.81,3.65-5.81,5.37-4.02,3.33-6.16,4.86c-1.03.74-2.08,1.47-3.14,2.16-.19.13-.27.38-.15.59.11.19.39.28.59.15,1.11-.72,2.21-1.45,3.29-2.22s2.16-1.59,3.21-2.42c2.06-1.63,4.05-3.35,5.97-5.13s3.8-3.65,5.62-5.55,3.62-3.88,5.38-5.88,3.48-4.02,5.19-6.05,3.41-4.09,5.12-6.13,3.42-4.09,5.15-6.12,3.5-4.03,5.29-6,3.62-3.9,5.47-5.81,3.77-3.81,5.7-5.66,3.89-3.68,5.88-5.47,3.98-3.53,6.02-5.24,4.12-3.42,6.23-5.08,4.2-3.26,6.35-4.83,4.31-3.12,6.5-4.62,4.44-3,6.7-4.44,4.54-2.85,6.84-4.21,4.6-2.68,6.93-3.96,4.71-2.55,7.09-3.77,4.78-2.4,7.2-3.56c1.16-.56,2.32-1.11,3.48-1.66.23-.11.06-.52-.18-.42h0Z"/>
            <path class="cls-1" d="M14,214.46c1.08-3.13,2.16-6.25,3.23-9.38s2.13-6.26,3.19-9.4c.96-2.85,1.92-5.69,2.89-8.54.88-2.57,1.78-5.14,2.71-7.7s1.91-5.12,2.96-7.64c.51-1.23,1.02-2.44,1.57-3.67s1.12-2.47,1.72-3.69c1.18-2.42,2.44-4.79,3.81-7.1s2.84-4.54,4.44-6.69c.78-1.05,1.58-2.06,2.44-3.08s1.77-2.04,2.71-3.01c1.77-1.84,3.67-3.57,5.67-5.17.51-.4.92-.73,1.44-1.11s1.01-.74,1.52-1.1c1.01-.71,2.04-1.39,3.08-2.03,2.1-1.3,4.28-2.48,6.51-3.55s4.44-1.98,6.79-2.84,4.74-1.61,7.15-2.27,4.92-1.25,7.41-1.75,5.04-.93,7.57-1.29c.31-.04.63-.09.94-.13s.55-.07.9-.12c.65-.08,1.29-.16,1.94-.24,1.28-.15,2.56-.29,3.85-.41,2.59-.25,5.19-.45,7.79-.61s5.19-.28,7.79-.38,5.13-.16,7.69-.21c1.24-.03,2.47-.05,3.71-.07l-.31-.76c-1.91,1.66-3.72,3.42-5.43,5.28s-3.33,3.8-4.87,5.8-2.99,4.06-4.39,6.16-2.74,4.25-4.04,6.43-2.57,4.4-3.82,6.61-2.49,4.47-3.73,6.7-2.49,4.47-3.76,6.69-2.58,4.43-3.93,6.61-2.73,4.29-4.19,6.38-2.95,4.08-4.56,6.03-3.34,3.88-5.15,5.69-3.69,3.55-5.66,5.19-3.94,3.14-6.06,4.61-4.28,2.82-6.5,4.08-4.51,2.43-6.84,3.5-4.65,2.01-7.08,2.87-4.88,1.61-7.37,2.26-4.99,1.17-7.51,1.59-4.98.71-7.55.9-5.11.25-7.67.2c-1.24-.03-2.48-.06-3.72-.14-.23-.02-.42.2-.42.42,0,.24.19.41.42.42,2.58.17,5.15.25,7.73.17s5.11-.26,7.65-.57,5.13-.73,7.67-1.27,5-1.18,7.46-1.94,4.88-1.62,7.26-2.59,4.76-2.05,7.07-3.23,4.51-2.43,6.68-3.8,4.3-2.84,6.35-4.4,4.04-3.22,5.94-4.96,3.72-3.57,5.45-5.48,3.35-3.9,4.89-5.95,2.99-4.12,4.39-6.25,2.75-4.31,4.05-6.51,2.57-4.42,3.82-6.65,2.5-4.5,3.75-6.75,2.49-4.46,3.76-6.67,2.58-4.41,3.94-6.57,2.73-4.24,4.19-6.29,2.94-3.99,4.57-5.92,3.33-3.78,5.13-5.53c.88-.85,1.78-1.68,2.7-2.48.29-.26.05-.76-.31-.76-2.57.04-5.14.09-7.72.16s-5.2.16-7.8.29-5.2.29-7.8.49-5.18.45-7.76.76-5.17.68-7.73,1.12-5.04.94-7.53,1.53-4.91,1.26-7.32,2.03-4.72,1.62-7.02,2.58-4.56,2.04-6.75,3.24-4.28,2.5-6.3,3.93-4.04,3.04-5.91,4.75c-1.97,1.8-3.82,3.74-5.54,5.78s-3.35,4.25-4.84,6.51-2.84,4.56-4.11,6.93-2.45,4.83-3.55,7.3-2.16,5.05-3.15,7.62-1.92,5.14-2.82,7.73-1.78,5.18-2.64,7.78c-1.05,3.14-2.1,6.27-3.15,9.41s-2.1,6.27-3.12,9.41c-.5,1.52-.99,3.04-1.49,4.56-.13.41.5.58.64.18h0Z"/>
            <path class="cls-1" d="M108.16,120.97c-.04.16-.07.33-.11.49-.02.08-.04.15-.06.23-.03.08-.05.17-.07.25-.07.33-.15.65-.23.98-.17.65-.35,1.3-.56,1.94s-.44,1.25-.7,1.87c-.03.07.02-.05,0,.02,0,.01-.01.03-.02.04-.02.04-.03.07-.05.11-.03.08-.07.16-.11.24-.07.15-.14.31-.21.46-.14.3-.29.61-.45.9-.35.67-.73,1.32-1.15,1.94-.07.1-.05.25.02.34.08.1.2.14.33.11.35-.07.69-.15,1.04-.21.17-.03.34-.06.51-.08.04,0,.08-.01.12-.02.02,0,.05,0,.07-.01-.08,0-.02,0,0,0,.09-.01.18-.02.27-.03.7-.08,1.4-.12,2.1-.13s1.39.03,2.09.1c.08,0,.16.02.24.03.04,0,.08,0,.12.01.05,0,.1,0,.15.02-.07-.02,0,0,.01,0,.02,0,.03,0,.05,0,.04,0,.09.01.13.02.09.01.18.03.27.04.34.06.69.12,1.03.2.38.08.77.18,1.14.29.19.05.38.11.56.17.09.03.19.06.28.09.11.03.27.02.38-.02h-.12c.07.02.14.03.22.04.09.02.18-.02.22-.11.03-.08,0-.19-.08-.23-.06-.03-.13-.07-.19-.1l.08.08c-.05-.08-.15-.2-.23-.24-.1-.05-.21-.08-.31-.11-.17-.05-.34-.11-.51-.16-.34-.1-.68-.19-1.02-.27-.71-.17-1.43-.29-2.16-.37-1.4-.17-2.82-.18-4.22-.03-.41.04-.82.1-1.23.17s-.79.14-1.18.24l.35.46c.69-1.16,1.33-2.36,1.85-3.6s.98-2.54,1.28-3.86c.08-.37.16-.74.23-1.11.02-.09.03-.19.05-.28.02-.11.01-.21.02-.32.02-.19.04-.38.06-.57.02-.18-.28-.22-.31-.04h0Z"/>
            <path class="cls-1" d="M97.41,121.74c.21.99.39,1.99.47,3s.09,2.04,0,3.06c-.17,2-.66,3.98-1.48,5.82-.47,1.05-1.03,2.05-1.69,2.99-.16.22.06.45.28.48,1.94.25,3.85.79,5.64,1.57s3.53,1.82,5.06,3.07c.87.71,1.68,1.48,2.42,2.31.12.13.34.12.46,0,.13-.13.12-.33,0-.46-1.35-1.52-2.93-2.84-4.65-3.92s-3.6-1.93-5.55-2.5c-1.11-.33-2.24-.56-3.38-.71l.28.48c1.2-1.7,2.08-3.63,2.62-5.64s.74-4.12.57-6.19c-.1-1.17-.3-2.35-.69-3.46-.08-.22-.41-.14-.36.1h0Z"/>
            <path class="cls-1" d="M80.98,124.89c.07.4.1.8.15,1.2s.11.79.17,1.19c.1.79.19,1.59.24,2.39.11,1.6.12,3.21.03,4.81-.18,3.19-.78,6.36-1.79,9.4-.56,1.71-1.25,3.37-2.07,4.97-.12.24.03.46.28.49,3,.38,5.97,1.03,8.86,1.91s5.68,1.99,8.37,3.33c1.52.76,3.01,1.59,4.46,2.49.37.23.72-.36.35-.59-2.6-1.62-5.34-3.01-8.18-4.17s-5.75-2.08-8.73-2.74c-1.69-.38-3.4-.67-5.12-.88l.28.49c1.47-2.92,2.55-6.04,3.2-9.25s.88-6.46.65-9.71c-.06-.91-.16-1.83-.3-2.73-.07-.45-.13-.9-.23-1.34s-.24-.88-.35-1.32c-.05-.18-.3-.1-.28.08h0Z"/>
            <path class="cls-1" d="M54.2,136.43c.67,1.96,1.25,3.95,1.71,5.98s.79,4.06,1,6.11.29,4.14.26,6.21-.19,4.12-.48,6.17-.7,4.11-1.24,6.12c-.07.25-.13.49-.2.74-.06.2.11.46.33.44,2.28-.19,4.57-.19,6.86-.03s4.52.5,6.74.99,4.41,1.16,6.54,1.97,4.19,1.79,6.17,2.91,3.87,2.37,5.65,3.77c.22.18.45.35.67.54.14.12.34.14.48,0,.12-.12.14-.37,0-.48-1.79-1.47-3.69-2.8-5.69-3.98s-4.08-2.2-6.23-3.08-4.34-1.58-6.58-2.12-4.55-.93-6.86-1.14-4.61-.25-6.91-.1c-.28.02-.57.04-.85.06l.33.44c.57-2.01,1.02-4.06,1.34-6.13s.51-4.16.57-6.26,0-4.19-.2-6.27-.52-4.17-.97-6.23-1-4.05-1.73-6c-.09-.25-.19-.5-.28-.74-.1-.27-.53-.16-.43.12h0Z"/>
            <path class="cls-1" d="M48.51,141.8c.06.56.09,1.13.15,1.69s.11,1.13.16,1.7c.1,1.12.18,2.25.24,3.37.12,2.26.16,4.53.13,6.79s-.15,4.55-.34,6.82-.46,4.49-.82,6.72-.79,4.46-1.31,6.67c-.06.27-.13.54-.19.82-.05.19.1.44.32.41,2.33-.25,4.68-.33,7.02-.25s4.64.31,6.93.7,4.58.94,6.8,1.64,4.41,1.54,6.52,2.53,4.17,2.14,6.14,3.42c.24.16.47.31.71.47.15.1.37.03.45-.12.09-.16.03-.35-.12-.45-1.95-1.32-3.99-2.5-6.1-3.53s-4.31-1.93-6.56-2.68-4.52-1.33-6.83-1.76-4.68-.72-7.04-.84-4.71-.08-7.05.13c-.29.03-.58.05-.87.09l.32.41c.53-2.21.99-4.44,1.36-6.69s.67-4.54.88-6.82.33-4.54.37-6.81,0-4.55-.14-6.82c-.07-1.15-.15-2.29-.26-3.43s-.22-2.26-.41-3.38c-.05-.27-.09-.55-.14-.82-.03-.17-.33-.14-.31.04h0Z"/>
            <path class="cls-1" d="M29.86,166.11c.64,1.8,1.18,3.62,1.6,5.48s.71,3.74.88,5.63.22,3.81.14,5.71-.27,3.79-.6,5.66-.78,3.71-1.36,5.52c-.07.23-.15.46-.23.69-.08.24.16.41.38.38,2.07-.36,4.17-.58,6.27-.67s4.23-.04,6.33.15,4.2.5,6.26.95,4.1,1.03,6.09,1.74,3.92,1.54,5.79,2.5c.12.06.24.12.37.16.12.04.26.08.37.14.27.15.52-.27.24-.42-.24-.13-.44-.32-.69-.45s-.47-.24-.71-.36c-.48-.24-.97-.47-1.46-.69-.98-.44-1.97-.85-2.98-1.23-2-.75-4.04-1.37-6.12-1.85s-4.22-.84-6.36-1.06-4.26-.3-6.39-.24-4.29.26-6.42.59c-.26.04-.52.09-.78.13l.38.38c.61-1.81,1.1-3.67,1.46-5.55s.6-3.82.7-5.75.08-3.83-.08-5.74-.44-3.84-.86-5.72-.95-3.72-1.64-5.5c-.09-.23-.18-.45-.27-.68-.08-.21-.42-.12-.34.09h0Z"/>
          </g>
          <g>
            <path class="cls-6" d="M1906.01,736.13c2.02,1.44,3.98,2.94,5.87,4.53.64.53,1.28,1.08,1.89,1.64l-1.02,1.38c-6.64,9.81-9.73,21.97-8.59,33.77-2.93-2.76-5.78-5.58-8.58-8.48-.9-11.64,2.86-23.59,10.26-32.61l.17-.23Z"/>
            <path class="cls-6" d="M1906.01,736.13l-.17.23c-7.4,9.02-11.16,20.97-10.26,32.61-6.71-7-13.01-14.41-18.84-22.18.97-7.72,3.64-15.23,7.76-21.84l.79-1.42c7.1,3.94,14.18,7.92,20.72,12.6Z"/>
            <path class="cls-6" d="M1912.75,743.68l1.02-1.38c6.18,5.5,11.47,11.95,15.78,19.01l-1.88,1.19c-5.01,9.37-6.85,20.38-5.19,30.87-4.18-3.5-8.39-6.97-12.45-10.55-1.99-1.76-3.96-3.55-5.88-5.37-1.14-11.8,1.95-23.96,8.59-33.77Z"/>
            <path class="cls-6" d="M1885.29,723.53l-.79,1.42c-4.12,6.61-6.79,14.12-7.76,21.84-4.31-5.7-8.35-11.61-12.12-17.68.77-4.86,3.26-9.39,6.92-12.66l.33-.54c4.39,2.62,8.92,5.12,13.43,7.62Z"/>
            <path class="cls-6" d="M1857.96,717.75c-3.25-5.89-6.25-11.92-8.99-18.07h-.4c0-.75-.01-1.52-.03-2.28,6.57,7.59,14.69,13.33,23.32,18.51l-.33.54c-3.65,3.26-6.14,7.8-6.92,12.66-2.34-3.72-4.55-7.52-6.66-11.36Z"/>
            <path class="cls-6" d="M1848.58,699.68h.4c2.74,6.15,5.74,12.17,8.99,18.06.06.78.2,1.57.38,2.34-2.77-1.77-5.9-2.97-9.14-3.52-.34-5.65-.5-11.31-.62-16.88Z"/>
            <path class="cls-6" d="M1927.68,762.5l1.88-1.19c9.04,14.85,13.64,32.44,12.55,49.81-.01,0-.03,0-.05-.01-6-6.34-12.76-12.07-19.57-17.74-1.66-10.48.18-21.49,5.19-30.87Z"/>
            <path class="cls-6" d="M1858.34,720.09c-.18-.77-.32-1.57-.38-2.34,2.11,3.85,4.33,7.65,6.66,11.36-.05.22-.09.45-.12.7-4.12-2.9-9.51-3.94-14.41-2.77-.4-3.48-.67-6.97-.9-10.48,3.24.55,6.38,1.75,9.14,3.52Z"/>
            <path class="cls-6" d="M1864.5,729.81c.03-.24.07-.47.12-.7,3.77,6.07,7.82,11.98,12.12,17.68-7.29-3.68-15.84-4.82-23.85-3.16-1.29-5.4-2.18-10.96-2.8-16.59,4.9-1.18,10.29-.14,14.41,2.77Z"/>
            <path class="cls-6" d="M1852.9,743.63c8.01-1.66,16.56-.52,23.85,3.16,5.83,7.77,12.13,15.18,18.84,22.18,0,.1,0,.17.02.26-10.23-2.91-21.37-2.52-31.36,1.11-5.51-7.96-9.05-17.07-11.34-26.71Z"/>
            <path class="cls-6" d="M1895.6,769.22c-.01-.08-.01-.16-.02-.26,2.79,2.9,5.64,5.72,8.58,8.48,0,.17.03.34.04.5-11.3-2.73-23.12-3.36-34.66-1.82l-.42.38c-1.8-1.97-3.42-4.02-4.89-6.18,10-3.63,21.13-4.02,31.36-1.11Z"/>
            <path class="cls-6" d="M1904.2,777.95c-.01-.16-.04-.33-.04-.5,1.93,1.82,3.89,3.62,5.88,5.37,4.07,3.58,8.27,7.05,12.45,10.55.04.27.08.55.13.83-8.91-3.01-18.8-2.95-27.66.15-9.21-4.17-17.78-9.35-24.72-16.62-.38-.39-.77-.81-1.12-1.22l.42-.38c11.53-1.54,23.35-.91,34.66,1.82Z"/>
            <path class="cls-6" d="M1922.63,794.2c-.05-.28-.09-.56-.13-.83,6.81,5.67,13.57,11.39,19.57,17.74-7.83-2.62-15.66-5.27-23.5-7.9-7.91-2.64-15.97-5.4-23.59-8.85,8.86-3.11,18.75-3.17,27.66-.15Z"/>
            <path class="cls-5" d="M1906.01,736.13l-.17.23c-3.29,4.01-5.85,8.6-7.62,13.48.66.55,1.33,1.09,1.97,1.65,2.14,1.85,4.15,3.77,6.07,5.75,1.49-4.81,3.66-9.4,6.48-13.57l1.02-1.38c-.61-.57-1.25-1.12-1.89-1.64-1.89-1.59-3.85-3.08-5.87-4.53Z"/>
            <path class="cls-5" d="M1885.29,723.53l-.79,1.42c-2.21,3.54-3.98,7.35-5.32,11.31,6.71,4.09,13.1,8.63,19.05,13.58,1.76-4.88,4.33-9.47,7.62-13.48l.17-.23c-6.54-4.68-13.62-8.67-20.72-12.6Z"/>
            <path class="cls-5" d="M1912.75,743.68c-2.82,4.17-4.99,8.76-6.48,13.57,6.31,6.5,11.54,13.75,16.03,21.84.02.04.04.08.07.13.77-5.82,2.54-11.52,5.31-16.71l1.88-1.19c-4.31-7.06-9.6-13.51-15.78-19.01l-1.02,1.38Z"/>
            <path class="cls-5" d="M1871.87,715.91l-.33.54c-3.46,3.09-5.86,7.33-6.76,11.9,4.92,2.42,9.74,5.06,14.41,7.91,1.34-3.96,3.11-7.77,5.32-11.31l.79-1.42c-4.51-2.5-9.04-5-13.43-7.62Z"/>
            <path class="cls-5" d="M1848.55,697.4c.02.76.02,1.53.03,2.29h.4c2.74,6.15,5.74,12.17,8.99,18.06,1.89,3.45,3.88,6.84,5.95,10.19.29.14.58.27.87.42.9-4.57,3.3-8.81,6.76-11.9l.33-.54c-8.63-5.18-16.74-10.92-23.32-18.51Z"/>
            <path class="cls-5" d="M1848.58,699.68h.4c2.74,6.15,5.74,12.17,8.99,18.06.06.78.2,1.57.38,2.34-2.77-1.77-5.9-2.97-9.14-3.52-.34-5.65-.5-11.31-.62-16.88Z"/>
            <path class="cls-5" d="M1927.68,762.5c-2.77,5.19-4.53,10.88-5.31,16.71,4.78,8.64,8.75,17.66,13.82,26.08,2.02,1.89,3.99,3.82,5.87,5.82.01,0,.03,0,.04.01,1.09-17.37-3.52-34.96-12.55-49.81l-1.88,1.19Z"/>
            <path class="cls-5" d="M1863.91,727.94c-2.07-3.34-4.06-6.74-5.95-10.19.06.78.2,1.57.38,2.34-2.77-1.77-5.9-2.97-9.14-3.52.11,1.71.24,3.43.38,5.14,4.84,1.88,9.63,3.96,14.33,6.24Z"/>
            <path class="cls-5" d="M1939.35,810.19c.9.3,1.81.61,2.71.91-1.89-2-3.86-3.93-5.87-5.82,1,1.66,2.06,3.29,3.16,4.9Z"/>
            <path class="cls-1" d="M1848.75,699.74c1.03,2.48,2.14,4.92,3.3,7.34s2.35,4.81,3.6,7.19,2.52,4.71,3.84,7.02,2.68,4.62,4.08,6.89,2.84,4.54,4.32,6.78,2.98,4.43,4.52,6.61,3.12,4.33,4.74,6.46,3.29,4.27,4.99,6.36,3.41,4.13,5.17,6.15,3.53,4,5.35,5.96,3.67,3.88,5.55,5.77,3.81,3.77,5.76,5.6,3.93,3.64,5.94,5.41,4,3.46,6.02,5.17,4.1,3.42,6.15,5.13,4.1,3.42,6.13,5.16,4.01,3.48,5.97,5.27,3.86,3.6,5.72,5.48,3.65,3.81,5.37,5.81,3.33,4.02,4.86,6.16c.74,1.03,1.47,2.08,2.16,3.14.13.19.38.27.59.15.19-.11.28-.39.15-.59-.72-1.11-1.45-2.21-2.22-3.29s-1.59-2.16-2.42-3.21c-1.63-2.06-3.35-4.05-5.13-5.97s-3.65-3.8-5.55-5.62-3.88-3.62-5.88-5.38-4.02-3.48-6.05-5.19-4.09-3.41-6.13-5.12-4.09-3.42-6.12-5.15-4.03-3.5-6-5.29-3.9-3.62-5.81-5.47-3.81-3.77-5.66-5.7-3.68-3.89-5.47-5.88-3.53-3.98-5.24-6.01-3.42-4.12-5.08-6.23-3.26-4.2-4.83-6.35-3.12-4.31-4.62-6.5-3-4.44-4.44-6.7-2.85-4.54-4.21-6.84-2.68-4.6-3.96-6.93-2.55-4.71-3.77-7.09-2.4-4.78-3.56-7.2c-.56-1.16-1.11-2.32-1.66-3.48-.11-.23-.52-.06-.42.18h0Z"/>
            <path class="cls-1" d="M1942.2,810.8c-3.13-1.08-6.25-2.16-9.38-3.23s-6.26-2.13-9.4-3.19c-2.85-.96-5.69-1.92-8.54-2.89-2.57-.88-5.14-1.78-7.7-2.71s-5.12-1.91-7.64-2.96c-1.23-.51-2.44-1.02-3.67-1.57s-2.47-1.12-3.69-1.72c-2.42-1.18-4.79-2.44-7.1-3.81s-4.54-2.84-6.69-4.44c-1.05-.78-2.06-1.58-3.08-2.44s-2.04-1.77-3.01-2.71c-1.84-1.77-3.57-3.67-5.17-5.67-.4-.51-.73-.92-1.11-1.44s-.74-1.01-1.1-1.52c-.71-1.01-1.39-2.04-2.03-3.08-1.3-2.1-2.48-4.28-3.55-6.51s-1.98-4.44-2.84-6.79-1.61-4.74-2.27-7.15-1.25-4.92-1.75-7.41-.93-5.04-1.3-7.57c-.04-.31-.09-.63-.13-.94s-.07-.55-.12-.9c-.08-.65-.16-1.29-.24-1.94-.15-1.28-.29-2.56-.41-3.85-.25-2.59-.45-5.19-.61-7.79s-.28-5.19-.38-7.79-.16-5.13-.21-7.69c-.03-1.24-.05-2.47-.07-3.71l-.76.31c1.66,1.91,3.42,3.72,5.28,5.43s3.8,3.33,5.8,4.87,4.06,2.99,6.16,4.39,4.25,2.74,6.43,4.04,4.4,2.57,6.61,3.82,4.47,2.49,6.7,3.73,4.47,2.49,6.69,3.76,4.43,2.58,6.61,3.93,4.29,2.73,6.38,4.19,4.08,2.95,6.03,4.56,3.88,3.34,5.69,5.15,3.55,3.69,5.19,5.66,3.14,3.94,4.61,6.06,2.82,4.28,4.08,6.5,2.43,4.51,3.5,6.84,2.01,4.65,2.87,7.08,1.61,4.88,2.26,7.37,1.17,4.99,1.59,7.51.71,4.98.9,7.55.25,5.11.2,7.67c-.03,1.24-.06,2.48-.14,3.72-.02.23.2.42.42.42.24,0,.41-.19.42-.42.17-2.58.25-5.15.17-7.73s-.26-5.11-.57-7.65-.73-5.13-1.27-7.67-1.18-5-1.94-7.46-1.62-4.88-2.59-7.26-2.05-4.76-3.23-7.07-2.43-4.51-3.8-6.68-2.84-4.3-4.4-6.35-3.22-4.04-4.96-5.94-3.57-3.72-5.48-5.45-3.9-3.35-5.95-4.89-4.12-2.99-6.25-4.39-4.31-2.75-6.51-4.05-4.42-2.57-6.65-3.82-4.5-2.5-6.75-3.75-4.46-2.49-6.67-3.76-4.41-2.58-6.57-3.94-4.24-2.73-6.29-4.19-3.99-2.94-5.92-4.57-3.78-3.33-5.53-5.13c-.85-.88-1.68-1.78-2.48-2.7-.26-.29-.76-.05-.76.31.04,2.57.09,5.14.16,7.72s.16,5.2.29,7.8.29,5.2.49,7.8.45,5.18.76,7.76.68,5.17,1.12,7.73.94,5.04,1.53,7.53,1.26,4.91,2.03,7.32,1.62,4.72,2.58,7.02,2.04,4.56,3.24,6.75,2.5,4.28,3.93,6.3,3.04,4.04,4.75,5.91c1.8,1.97,3.74,3.82,5.78,5.54s4.25,3.35,6.51,4.84,4.56,2.84,6.93,4.11,4.83,2.45,7.3,3.55,5.06,2.16,7.62,3.15,5.14,1.92,7.73,2.82,5.18,1.77,7.78,2.64c3.14,1.05,6.27,2.1,9.41,3.15s6.27,2.09,9.42,3.12c1.52.5,3.04.99,4.56,1.49.41.13.58-.5.18-.64h0Z"/>
            <path class="cls-1" d="M1848.71,716.64c.16.04.33.07.49.11.08.02.15.04.23.06.08.03.17.05.25.07.33.07.65.15.98.23.65.17,1.3.35,1.94.56s1.25.44,1.87.7c.07.03-.05-.02.02,0,.01,0,.03.01.04.02.04.02.07.03.11.05.08.03.16.07.24.11.15.07.31.14.46.21.3.14.61.29.9.45.67.35,1.32.73,1.94,1.15.1.07.25.05.34-.02.1-.08.14-.2.11-.33-.07-.35-.15-.69-.21-1.04-.03-.17-.06-.34-.08-.51,0-.04-.01-.08-.02-.12,0-.02,0-.05-.01-.07,0,.08,0,.02,0,0-.01-.09-.02-.18-.03-.27-.08-.7-.12-1.4-.13-2.1s.03-1.39.1-2.09c0-.08.02-.16.03-.24,0-.04,0-.08.01-.12,0-.05,0-.1.02-.15-.02.07,0,0,0-.01,0-.02,0-.03,0-.05,0-.04.01-.09.02-.13.01-.09.03-.18.04-.27.06-.34.12-.69.2-1.03.08-.38.18-.77.29-1.14.05-.19.11-.38.17-.56.03-.09.06-.19.09-.28.03-.11.02-.27-.02-.38v.12c.02-.07.03-.14.04-.22.02-.09-.02-.18-.11-.22-.08-.03-.19,0-.23.08-.03.06-.07.13-.1.19l.08-.08c-.08.05-.2.15-.24.23-.05.1-.08.21-.11.31-.05.17-.11.34-.16.51-.1.34-.19.68-.27,1.02-.17.71-.29,1.43-.37,2.16-.17,1.4-.18,2.82-.03,4.22.04.41.1.82.17,1.23s.14.79.24,1.18l.46-.35c-1.16-.69-2.36-1.33-3.6-1.85s-2.54-.98-3.86-1.28c-.37-.08-.74-.16-1.11-.23-.09-.02-.19-.03-.28-.05-.11-.02-.21-.01-.32-.02-.19-.02-.38-.04-.57-.06-.18-.02-.22.28-.04.31h0Z"/>
            <path class="cls-1" d="M1849.48,727.39c.99-.21,1.99-.39,3-.47s2.04-.09,3.06,0c2,.17,3.98.66,5.82,1.48,1.05.47,2.05,1.03,2.99,1.69.22.16.45-.06.48-.28.25-1.94.79-3.85,1.57-5.64s1.82-3.53,3.07-5.06c.71-.87,1.48-1.68,2.31-2.42.13-.12.12-.34,0-.46-.13-.13-.33-.12-.46,0-1.52,1.35-2.84,2.93-3.92,4.65s-1.93,3.6-2.5,5.55c-.33,1.11-.56,2.24-.71,3.38l.48-.28c-1.7-1.2-3.63-2.08-5.64-2.62s-4.12-.74-6.19-.57c-1.17.1-2.35.3-3.46.69-.22.08-.14.41.1.36h0Z"/>
            <path class="cls-1" d="M1852.63,743.82c.4-.07.8-.1,1.2-.15s.79-.11,1.19-.17c.79-.1,1.59-.19,2.39-.24,1.6-.11,3.21-.12,4.81-.03,3.19.18,6.36.78,9.4,1.79,1.71.56,3.37,1.25,4.97,2.07.24.12.46-.03.49-.28.38-3,1.03-5.97,1.91-8.86s1.99-5.68,3.33-8.37c.76-1.52,1.59-3.01,2.49-4.46.23-.37-.36-.72-.59-.35-1.62,2.6-3.01,5.34-4.17,8.18s-2.08,5.75-2.74,8.73c-.38,1.69-.67,3.4-.88,5.12l.49-.28c-2.92-1.47-6.04-2.55-9.25-3.2s-6.46-.88-9.71-.65c-.91.06-1.83.16-2.73.3-.45.07-.9.13-1.34.23s-.88.24-1.32.35c-.18.05-.1.3.08.28h0Z"/>
            <path class="cls-1" d="M1864.17,770.6c1.96-.67,3.95-1.25,5.98-1.71s4.06-.79,6.11-1,4.14-.29,6.21-.26,4.12.19,6.17.48,4.11.7,6.12,1.24c.25.07.49.13.74.2.2.06.46-.11.44-.33-.19-2.28-.2-4.57-.03-6.86s.5-4.52.99-6.74,1.16-4.41,1.97-6.54,1.79-4.19,2.91-6.17,2.37-3.87,3.77-5.65c.18-.22.35-.45.54-.67.12-.14.14-.34,0-.48-.12-.12-.37-.14-.48,0-1.47,1.79-2.8,3.69-3.98,5.69s-2.2,4.08-3.08,6.23-1.58,4.34-2.12,6.58-.93,4.55-1.14,6.86-.25,4.61-.1,6.91c.02.28.04.57.06.85l.44-.33c-2.01-.57-4.06-1.02-6.13-1.34s-4.16-.51-6.26-.57-4.19,0-6.27.2-4.17.52-6.23.97-4.05,1-6,1.73c-.25.09-.5.19-.74.28-.27.1-.16.53.12.43h0Z"/>
            <path class="cls-1" d="M1869.54,776.29c.56-.06,1.13-.09,1.69-.15s1.13-.11,1.7-.16c1.12-.1,2.25-.18,3.37-.24,2.26-.12,4.53-.16,6.79-.13s4.55.15,6.82.34,4.49.46,6.72.82,4.46.79,6.67,1.3c.27.06.54.13.82.19.19.05.44-.1.41-.32-.25-2.33-.33-4.68-.25-7.02s.31-4.64.7-6.93.94-4.58,1.64-6.8,1.54-4.41,2.53-6.52,2.14-4.17,3.42-6.14c.16-.24.31-.47.47-.71.1-.15.03-.37-.12-.45-.16-.09-.35-.03-.45.12-1.32,1.95-2.5,3.99-3.53,6.1s-1.93,4.31-2.68,6.56-1.33,4.52-1.76,6.83-.72,4.68-.84,7.04-.08,4.71.13,7.05c.03.29.05.58.09.87l.41-.32c-2.21-.53-4.44-.99-6.69-1.36s-4.54-.67-6.82-.88-4.54-.33-6.81-.37-4.55,0-6.82.14c-1.15.07-2.29.15-3.43.26s-2.26.22-3.38.41c-.27.05-.55.09-.82.14-.17.03-.14.33.04.31h0Z"/>
            <path class="cls-1" d="M1893.85,794.94c1.8-.64,3.62-1.18,5.48-1.6s3.74-.71,5.63-.88,3.81-.22,5.71-.14,3.79.27,5.66.6,3.71.78,5.52,1.36c.23.07.46.15.69.23.24.08.41-.16.38-.38-.36-2.07-.58-4.17-.67-6.27s-.04-4.23.15-6.33.5-4.2.95-6.26,1.03-4.1,1.74-6.09,1.54-3.92,2.5-5.79c.06-.12.12-.24.16-.37.04-.12.08-.26.14-.37.15-.27-.27-.52-.42-.24-.13.24-.32.44-.45.69s-.24.47-.36.71c-.24.48-.47.97-.69,1.46-.44.98-.85,1.97-1.23,2.98-.75,2-1.37,4.04-1.85,6.12s-.84,4.22-1.06,6.36-.3,4.26-.24,6.39.26,4.29.59,6.42c.04.26.09.52.13.78l.38-.38c-1.82-.61-3.67-1.1-5.55-1.46s-3.82-.6-5.75-.7-3.83-.08-5.74.08-3.84.44-5.72.86-3.72.95-5.5,1.64c-.23.09-.45.18-.68.27-.21.08-.12.42.09.34h0Z"/>
          </g>
          <g>
            <path class="cls-6" d="M18.75,873.5c-.18.14-.39.24-.6.37,1.72-10.31,3.6-21.06,8.26-30.25l.21.11c4.25,6.1,5.42,14.25,3.02,21.29.79.06,1.57.13,2.37.24-4.05,2.72-8.19,5.32-12.41,7.77-.09-.37-.89.02-.84.47Z"/>
            <path class="cls-6" d="M19.59,873.03c4.22-2.45,8.36-5.04,12.41-7.77,5.81.8,11.43,3.13,16.06,6.7-.06.02-.1.03-.16.05-8.88,2.37-18.33.74-27.44,2.06-.61.1-1.37.13-1.67-.4-.05-.05-.05-.11-.05-.16.29-.14.56-.31.84-.47Z"/>
            <path class="cls-6" d="M32,865.26c-.79-.11-1.57-.19-2.37-.24,2.4-7.04,1.23-15.19-3.02-21.29l-.21-.11c1.61-3.22,3.59-6.24,5.99-9.01,2.08-2.38,4.44-4.48,6.98-6.32,5.96,8.09,7.52,19.29,3.93,28.69.17-.02.34-.03.49-.03-3.85,2.89-7.79,5.67-11.8,8.31Z"/>
            <path class="cls-6" d="M48.06,871.96c-4.63-3.57-10.26-5.89-16.06-6.7,4.01-2.64,7.95-5.42,11.8-8.31,7.02-.61,14.2,1.2,20.1,5.03l.48.53c-4.77,4.3-10.18,7.78-16.32,9.45Z"/>
            <path class="cls-6" d="M43.79,856.95c-.16,0-.32.01-.49.03,3.6-9.4,2.03-20.6-3.93-28.69,5.14-3.76,11.06-6.5,17.16-8.65,4.57,6.72,6.21,15.39,4.33,23.33-5.47,4.91-11.18,9.57-17.07,13.98Z"/>
            <path class="cls-6" d="M64.38,862.51l-.48-.53c-5.9-3.83-13.08-5.64-20.1-5.03,5.89-4.41,11.6-9.08,17.07-13.98,0,.05-.02.09-.03.15,5.51-3.11,12.53-3.37,18.26-.7l1.06.65c-2.7,4.41-5.74,8.61-9.1,12.56-2.05,2.42-4.27,4.76-6.67,6.88Z"/>
            <path class="cls-6" d="M60.84,843.12c0-.05.02-.09.03-.15,4.66-4.15,9.17-8.46,13.54-12.95,3.65-2.33,8.27-3.1,12.52-2.13l.73.32c-2.07,5.15-4.57,10.12-7.5,14.86l-1.06-.65c-5.73-2.67-12.75-2.41-18.26.7Z"/>
            <path class="cls-6" d="M60.87,842.97c1.88-7.94.24-16.61-4.33-23.33,1.54-.55,3.1-1.06,4.66-1.54,5.5-1.67,11.12-3.02,16.67-4.5-1.28,5.55-2.54,11.08-3.81,16.62.12-.07.21-.15.34-.19-4.37,4.49-8.88,8.8-13.54,12.95Z"/>
            <path class="cls-6" d="M74.07,830.21c1.27-5.53,2.53-11.06,3.81-16.62,5.07-1.37,10.09-2.83,14.95-4.8-5.74,7.42-11.88,14.51-18.41,21.23-.13.04-.22.12-.34.19Z"/>
            <path class="cls-6" d="M86.93,827.9c-4.26-.97-8.87-.2-12.52,2.13,6.53-6.72,12.68-13.81,18.41-21.23.2-.08.4-.15.6-.23-1.22,6.73-3.17,13.32-5.77,19.65l-.73-.32Z"/>
            <path class="cls-5" d="M38.76,873.29c3.09-.16,6.15-.48,9.14-1.28.06-.02.1-.03.16-.05-1.02-.78-2.09-1.49-3.19-2.15-2.02,1.24-4.06,2.39-6.11,3.48Z"/>
            <path class="cls-5" d="M44.87,869.81c1.1.66,2.17,1.37,3.19,2.15,6.14-1.67,11.55-5.15,16.32-9.45l-.48-.53c-1.47-.95-3.02-1.78-4.62-2.48-4.57,3.78-9.42,7.25-14.41,10.3Z"/>
            <path class="cls-5" d="M59.28,859.51c1.6.7,3.15,1.52,4.62,2.48l.48.53c2.4-2.13,4.62-4.46,6.67-6.88,3.36-3.95,6.4-8.15,9.1-12.56l-1.06-.65c-.76-.36-1.55-.65-2.35-.9-4.93,6.48-10.91,12.56-17.47,17.99Z"/>
            <path class="cls-5" d="M85.28,827.61c-.12.31-.23.61-.39.92-2.19,4.44-4.95,8.79-8.14,12.98.8.25,1.59.55,2.35.9l1.06.65c2.93-4.74,5.44-9.71,7.5-14.86l-.73-.32c-.54-.12-1.09-.22-1.65-.29Z"/>
            <path class="cls-5" d="M88.47,813.21c-.76,1.27-1.53,2.52-2.3,3.78,2.27-2.69,4.5-5.41,6.65-8.19-1.06.43-2.12.82-3.19,1.2-.15,1.04-.5,2.11-1.15,3.21Z"/>
            <path class="cls-5" d="M86.17,816.99c-.57.94-1.13,1.88-1.72,2.82,1.46,2.13,1.93,4.9.82,7.8.55.07,1.1.16,1.65.29l.73.32c2.6-6.33,4.55-12.92,5.77-19.65l-.6.23c-2.15,2.78-4.38,5.5-6.65,8.19Z"/>
            <path class="cls-1" d="M93.66,806.98c-2.05,2.6-4.17,5.13-6.29,7.67s-4.27,5.01-6.48,7.46-4.48,4.88-6.78,7.26-4.63,4.69-7.01,6.96-4.83,4.53-7.31,6.73-4.97,4.32-7.52,6.41c-1.27,1.04-2.56,2.08-3.85,3.1-.65.52-1.31,1.03-1.97,1.54.14-.11,0,0-.03.02-.03.02-.06.04-.08.06-.08.06-.17.13-.25.19-.17.13-.34.26-.51.39-.32.25-.65.49-.97.74-2.64,2-5.32,3.95-8.04,5.85s-5.44,3.72-8.21,5.5-5.61,3.53-8.46,5.21c-.69.4-1.38.81-2.07,1.2l1.01.78c.28-1.68.56-3.37.86-5.05s.61-3.38.95-5.07.71-3.36,1.11-5.03.85-3.31,1.34-4.95,1.04-3.25,1.64-4.84c.15-.39.3-.78.46-1.17.08-.19.16-.39.24-.58.02-.05.04-.09.06-.14.03-.07-.02.05-.02.05.01-.02.02-.05.03-.07.04-.1.09-.2.13-.3.33-.77.68-1.54,1.05-2.3.73-1.5,1.54-2.97,2.42-4.39.44-.71.9-1.4,1.38-2.08.25-.35.5-.69.75-1.03.06-.08.12-.16.18-.24.01-.02.04-.04.05-.06,0,0-.08.1-.03.04.04-.05.07-.09.11-.14.13-.17.26-.33.39-.49,1.07-1.33,2.23-2.58,3.47-3.76.62-.59,1.26-1.16,1.91-1.71.32-.27.65-.54.98-.8.08-.06.16-.13.24-.19.04-.03.08-.06.12-.09.02-.02.04-.03.06-.05.07-.05.01-.02-.02.01.06-.07.17-.13.24-.19.09-.07.18-.13.26-.2,1.37-1.02,2.79-1.97,4.25-2.85s2.98-1.7,4.52-2.46c.78-.38,1.56-.75,2.35-1.11.39-.18.79-.35,1.18-.52.09-.04.19-.09.29-.12,0,0-.12.05-.05.02.02,0,.05-.02.07-.03.06-.02.11-.05.17-.07.21-.09.41-.17.62-.26,1.6-.65,3.23-1.26,4.86-1.82s3.37-1.11,5.07-1.62c1.89-.56,3.79-1.09,5.69-1.6s3.81-1,5.72-1.5,3.81-1,5.71-1.52,3.79-1.07,5.67-1.65,3.74-1.21,5.59-1.89c.9-.33,1.79-.68,2.68-1.04l-.85-.85c-.33,1.79-.71,3.57-1.13,5.34s-.91,3.54-1.43,5.3-1.09,3.47-1.71,5.19c-.31.86-.63,1.71-.96,2.56-.17.43-.34.85-.51,1.28-.09.21-.17.43-.26.64-.04.1-.08.2-.12.29-.02.05-.04.1-.06.15-.01.02-.02.05-.03.07-.03.08.05-.12,0,0-.71,1.68-1.46,3.33-2.26,4.97s-1.64,3.25-2.53,4.84-1.82,3.17-2.8,4.72-1.98,3.05-3.04,4.54c-.53.74-1.06,1.48-1.61,2.21-.14.18-.28.37-.42.55-.07.09-.14.18-.21.27-.03.04-.06.08-.1.13-.02.02-.03.04-.05.06.03-.04.06-.08.01-.01-.28.36-.57.72-.85,1.08-1.12,1.4-2.27,2.78-3.47,4.11s-2.39,2.58-3.65,3.8-2.59,2.4-3.96,3.51c-.17.14-.34.28-.52.41-.08.06-.16.13-.24.19-.06.05.04-.03.04-.03-.02.02-.04.03-.06.05-.05.04-.09.07-.14.11-.35.27-.7.53-1.06.79-.71.51-1.42,1-2.16,1.46-1.47.93-2.99,1.78-4.57,2.51-.19.09-.38.17-.57.26-.1.04-.2.09-.3.13-.04.02-.1.03-.14.06,0,0,.12-.05.05-.02-.03.01-.06.03-.09.04-.4.17-.81.33-1.22.48-.81.3-1.64.57-2.47.81-.95.27-1.9.49-2.87.67-.5.09-1,.18-1.5.25-.12.02-.23.03-.35.05-.06,0-.12.02-.17.02-.03,0-.06,0-.09.01.1-.01.05,0-.02,0-.24.03-.48.06-.72.09-2.01.23-4.03.33-6.05.38s-4.05.05-6.08.07-4.07.07-6.1.21c-1.01.07-2.01.17-3.01.29-.29.04-.59.08-.88.12-.02,0-.05,0-.07,0,0,0,.16-.02.08-.01-.04,0-.08.01-.13.02-.09.01-.19.02-.28.02s-.18,0-.28,0c-.01,0-.05-.01-.06,0,0,0,.15.03.08.01-.05-.01-.09-.02-.14-.03-.03,0-.09-.04-.11-.04,0,0,.12.07.07.03-.01-.01-.04-.02-.05-.03,0,0-.06-.04-.06-.04,0,0,.1.1.06.05-.01-.02-.08-.09-.09-.1,0,0,.09.11.05.05,0,0-.02-.04-.03-.04.04.03.04.16.03.06,0,.04.01.18.02.07,0,.21-.03.15-.01.1,0-.03.03-.07-.02.03-.05.12,0,.02,0,0,0-.01.02-.02.02-.03,0,0-.1.11-.06.08.02-.02.04-.04.06-.06,0,0,.02-.02.03-.03,0,0-.13.08-.08.06.03-.01.06-.03.08-.05.09-.06-.01.02-.06.02.02,0,.05-.01.07-.02.08-.04-.16.01-.08,0,.11,0-.06-.01-.09-.02h.09c.18.04.12.02-.18-.05.03.02.04.04-.03-.03-.09-.07-.11-.11-.14-.17-.04-.1-.02-.06-.02-.03.01.04,0,.13-.01-.09.03.33.28.66.64.64.33-.01.67-.28.64-.64-.02-.25-.09-.49-.28-.66-.05-.05-.11-.09-.17-.13-.05-.02-.11-.05-.16-.07.03.01.23.1.04.02-.12-.05-.24-.07-.37-.06-.43.02-.82.27-1.06.62-.25.37-.25.87.02,1.23.34.45.81.64,1.36.69.45.05.91-.04,1.36-.11.14-.02-.09.01.05,0,.06,0,.12-.02.17-.02.14-.02.27-.03.41-.05.25-.03.51-.06.76-.08,1.03-.11,2.07-.18,3.11-.23,2.07-.11,4.15-.13,6.22-.15s4.15-.03,6.22-.11,4.18-.25,6.24-.56c1.94-.29,3.85-.73,5.71-1.35,1.72-.57,3.4-1.28,5.01-2.11s3.1-1.73,4.57-2.73,2.96-2.16,4.35-3.35,2.68-2.41,3.94-3.69,2.47-2.61,3.64-3.97c1.24-1.44,2.43-2.93,3.59-4.44s2.22-2.99,3.27-4.54,2.04-3.1,3-4.69,1.88-3.22,2.75-4.87,1.7-3.32,2.48-5.02,1.54-3.49,2.25-5.26,1.32-3.49,1.91-5.26,1.13-3.56,1.62-5.35.93-3.61,1.31-5.44c.19-.88.36-1.77.52-2.65.05-.25,0-.49-.18-.67-.16-.16-.45-.27-.67-.18-1.83.75-3.69,1.43-5.56,2.06s-3.76,1.21-5.66,1.76-3.81,1.07-5.73,1.58-3.84,1-5.75,1.5-3.83,1.01-5.74,1.55-3.63,1.04-5.42,1.62c-1.65.53-3.3,1.1-4.92,1.71s-3.32,1.3-4.94,2.03-3.13,1.48-4.65,2.31-2.98,1.72-4.41,2.68-2.86,2.04-4.19,3.17-2.55,2.29-3.71,3.56-2.27,2.65-3.27,4.07-1.86,2.8-2.67,4.27-1.54,2.99-2.21,4.54-1.3,3.21-1.86,4.84-1.04,3.26-1.49,4.91-.85,3.34-1.23,5.02-.71,3.38-1.03,5.08-.61,3.39-.9,5.09c-.14.82-.27,1.64-.41,2.46-.05.28,0,.54.25.73.22.17.52.19.77.05,2.87-1.65,5.71-3.36,8.51-5.13s5.57-3.58,8.31-5.46,5.43-3.8,8.09-5.77,5.32-4.03,7.92-6.12,5.12-4.2,7.62-6.38,4.96-4.4,7.37-6.66,4.77-4.58,7.09-6.93,4.6-4.75,6.81-7.2,4.4-4.96,6.52-7.5c.53-.64,1.06-1.28,1.59-1.93.06-.07.11-.14.17-.21s.11-.14.16-.21c-.08.11.03-.03.03-.04.13-.17.27-.33.4-.5.25-.32.51-.64.76-.96,1.03-1.31,2.08-2.68,3.1-4.03.48-.64.96-1.27,1.43-1.91.14-.18.05-.47-.12-.6s-.47-.15-.61.04h0Z"/>
            <path class="cls-1" d="M77.74,812.51c-.28,1.15-.56,2.29-.83,3.44s-.53,2.29-.79,3.43c-.53,2.29-1.05,4.59-1.58,6.88-.3,1.29-.59,2.57-.89,3.86-.04.16.01.33.15.44.13.1.32.12.46.03.72-.48,1.49-.9,2.28-1.25.09-.04.19-.08.29-.13.06-.03-.06.02,0,0,.03-.01.06-.02.08-.04.06-.02.11-.05.17-.07.19-.08.39-.15.58-.22.41-.15.83-.28,1.26-.39s.83-.21,1.25-.29c.22-.04.43-.08.65-.11.05,0,.1-.01.15-.02.02,0,.05,0,.07-.01-.09.01-.02,0,0,0,.12-.01.23-.03.35-.04.86-.09,1.72-.12,2.58-.08.49.02.97.07,1.46.13-.02,0-.09-.01,0,0,.04,0,.07.01.11.02.06,0,.12.02.18.03.12.02.24.04.36.06.24.04.48.09.72.15.22.05.47-.07.52-.3.05-.22-.07-.47-.3-.52-1.74-.41-3.54-.53-5.32-.36s-3.57.62-5.24,1.33c-.91.39-1.79.86-2.61,1.41l.61.47c.52-2.29,1.04-4.59,1.56-6.88s1.04-4.59,1.56-6.88c.29-1.29.57-2.58.84-3.87.04-.18-.05-.39-.25-.44-.18-.04-.39.06-.44.25h0Z"/>
            <path class="cls-1" d="M79.3,842.06c-2.29-1.11-4.78-1.74-7.32-1.9s-5.05.13-7.44.87c-1.37.42-2.67.99-3.93,1.68l.72.55c.81-3.17,1.04-6.51.73-9.77s-1.15-6.51-2.49-9.54c-.73-1.67-1.62-3.27-2.67-4.76-.17-.24-.5-.37-.76-.2-.24.15-.38.51-.2.76.91,1.33,1.72,2.72,2.4,4.18.08.18.16.35.24.53.04.09.08.18.12.27.02.04.04.09.06.13.01.03.03.06.04.09-.02-.06-.02-.06,0,0,.15.36.29.72.43,1.09.28.75.53,1.5.74,2.27s.41,1.57.57,2.37c.08.38.14.77.21,1.15.03.19.06.39.09.58,0,.02.02.18,0,.05,0,.05.01.1.02.15.01.11.03.23.04.34.18,1.58.25,3.18.18,4.77-.04.89-.11,1.78-.23,2.67.02-.12,0,.04,0,.06,0,.06-.02.13-.03.19-.02.11-.03.23-.05.34-.04.22-.07.45-.11.67-.08.45-.16.9-.26,1.34-.09.41.34.77.72.55.53-.31,1.08-.58,1.65-.83.07-.03.13-.06.2-.09.04-.02.07-.03.11-.05-.02,0-.07.03.02,0,.15-.06.3-.12.45-.18.28-.11.56-.21.84-.31,1.16-.39,2.35-.67,3.56-.84.03,0,.06,0,.1-.01.1-.01.04,0,.02,0,.08-.01.16-.02.24-.03.15-.02.31-.03.46-.05.3-.03.6-.05.9-.07.61-.03,1.23-.04,1.85-.01s1.21.07,1.81.15c.12.02.22.03.38.05.15.02.3.05.46.07.3.05.59.11.88.17,1.32.29,2.65.72,3.86,1.26.2.09.44.06.56-.15.1-.18.05-.46-.15-.56h0Z"/>
            <path class="cls-1" d="M38.5,827.53c.28.41.56.83.84,1.25s.56.85.81,1.3.51.87.75,1.31.48.9.7,1.36c.45.93.8,1.75,1.16,2.71s.67,1.92.93,2.9.48,1.97.65,2.98c.04.25.08.5.12.75,0,.06.02.11.02.17-.01-.08.01.09.01.11.02.13.03.26.05.39.06.5.1,1,.14,1.5.14,2.03.07,4.06-.19,6.08,0,.02-.01.1,0,.01,0,.02,0,.05,0,.07,0,.06-.02.13-.03.19-.02.13-.04.26-.06.38-.04.25-.08.5-.13.74-.09.49-.2.99-.31,1.48-.24.99-.52,1.96-.86,2.92-.08.24-.17.47-.26.71-.11.29.18.67.49.64,1.39-.14,2.79-.18,4.19-.13.7.02,1.4.07,2.09.14s1.28.15,1.99.27c1.38.23,2.74.55,4.08.96s2.63.91,3.85,1.44c1.44.64,2.84,1.37,4.2,2.17.19.11.43.04.54-.14.12-.2.03-.42-.14-.54-.59-.42-1.18-.81-1.8-1.17s-1.22-.67-1.85-.98c-1.29-.63-2.64-1.15-4.01-1.59-2.7-.87-5.52-1.38-8.35-1.53-1.59-.08-3.19-.05-4.78.11l.49.64c.73-1.91,1.25-3.9,1.56-5.92s.43-4.13.33-6.2-.39-4.14-.89-6.15-1.19-3.99-2.09-5.86c-.44-.92-.93-1.82-1.48-2.68-.27-.44-.57-.85-.88-1.26s-.61-.85-.95-1.25c-.16-.19-.33-.38-.5-.56-.19-.21-.57.07-.4.31h0Z"/>
            <path class="cls-1" d="M48.9,872.26c-2.01-1.86-4.41-3.3-6.88-4.46s-5.08-2.05-7.76-2.6c-1.52-.32-3.07-.53-4.62-.63l.45.59c.95-2.79,1.37-5.77,1.24-8.72s-.75-5.85-1.88-8.56c-.65-1.55-1.44-3.03-2.4-4.4-.15-.22-.45-.34-.69-.18-.22.14-.34.46-.18.69,1.66,2.4,2.81,4.95,3.5,7.77.17.69.31,1.4.42,2.1.06.38.09.61.13,1.02.04.35.07.7.09,1.06.09,1.44.06,2.9-.1,4.33-.05.41-.09.69-.16,1.12-.07.4-.14.79-.23,1.19-.17.79-.39,1.57-.65,2.33-.1.3.16.57.45.59,2.66.17,5.29.66,7.87,1.46s4.97,1.89,7.27,3.26c1.3.78,2.54,1.64,3.78,2.5.27.19.59-.23.35-.45h0Z"/>
          </g>
        </g>
      </g>
    </g>
  </g>
</svg>